<svg width="218" height="215" xmlns="http://www.w3.org/2000/svg" xmlns:xlink="http://www.w3.org/1999/xlink" overflow="hidden"><defs><clipPath id="clip0"><rect x="0" y="0" width="218" height="215"/></clipPath><linearGradient x1="0.0165948" y1="107.157" x2="217.693" y2="107.157" gradientUnits="userSpaceOnUse" spreadMethod="pad" id="fill1"><stop offset="0" stop-color="#8F5E25"/><stop offset="0.5" stop-color="#FBF4A1"/><stop offset="1" stop-color="#8F5E25"/></linearGradient><linearGradient x1="87.624" y1="74.1737" x2="137.022" y2="74.1737" gradientUnits="userSpaceOnUse" spreadMethod="pad" id="fill2"><stop offset="0" stop-color="#8F5E25"/><stop offset="0.5" stop-color="#FBF4A1"/><stop offset="1" stop-color="#8F5E25"/></linearGradient><linearGradient x1="80.1067" y1="62.263" x2="107.347" y2="62.263" gradientUnits="userSpaceOnUse" spreadMethod="pad" id="fill3"><stop offset="0" stop-color="#8F5E25"/><stop offset="0.5" stop-color="#FBF4A1"/><stop offset="1" stop-color="#8F5E25"/></linearGradient><linearGradient x1="110.366" y1="88.7754" x2="130.261" y2="88.7754" gradientUnits="userSpaceOnUse" spreadMethod="pad" id="fill4"><stop offset="0" stop-color="#8F5E25"/><stop offset="0.5" stop-color="#FBF4A1"/><stop offset="1" stop-color="#8F5E25"/></linearGradient><linearGradient x1="39.0184" y1="124.906" x2="178.331" y2="124.906" gradientUnits="userSpaceOnUse" spreadMethod="pad" id="fill5"><stop offset="0" stop-color="#8F5E25"/><stop offset="0.5" stop-color="#FBF4A1"/><stop offset="1" stop-color="#8F5E25"/></linearGradient><linearGradient x1="39.0184" y1="155.24" x2="178.331" y2="155.24" gradientUnits="userSpaceOnUse" spreadMethod="pad" id="fill6"><stop offset="0" stop-color="#8F5E25"/><stop offset="0.5" stop-color="#FBF4A1"/><stop offset="1" stop-color="#8F5E25"/></linearGradient></defs><g clip-path="url(#clip0)"><path d="M214.748 127.332C212.566 138.038 208.783 148.144 203.399 157.656 200.009 163.782 196.02 169.489 191.428 174.779L187.711 178.906 186.473 180.351 185.028 181.589 181.111 185.091 181.522 185.091 186.267 180.141 190.6 174.984C195.993 168.111 200.461 160.688 204.016 152.706 206.261 147.617 208.09 142.38 209.512 137.005 210.934 131.63 211.922 126.169 212.481 120.638 213.04 115.106 213.165 109.561 212.852 104.007 212.539 98.4528 211.797 92.9569 210.616 87.5235 209.387 81.7369 207.665 76.0979 205.456 70.6109 203.649 65.987 201.516 61.5151 199.057 57.2042 195.6 51.0688 191.539 45.3627 186.88 40.0814L183.164 35.9539 181.925 34.5095 180.48 33.2707 176.353 29.5591C171.165 24.64 165.522 20.3068 159.431 16.5638 155.12 14.0327 150.653 11.8326 146.016 9.96334 140.529 7.68715 134.89 5.8984 129.094 4.60156 120.459 2.70101 111.725 1.87819 102.884 2.12414 110.84 1.42653 118.773 1.63223 126.684 2.7502 134.594 3.8637 142.277 5.85816 149.727 8.72463L156.332 11.4078 162.732 14.708C166.823 16.9842 170.745 19.5287 174.493 22.3415L179.859 26.6747 182.336 28.942 184.814 31.2092 189.558 35.9539 193.892 40.9042C199.253 47.5718 203.725 54.7939 207.307 62.5615 210.639 69.8462 213.116 77.4081 214.735 85.2518 216.135 92.1609 216.837 99.1415 216.837 106.189 216.837 113.237 216.135 120.217 214.735 127.126L214.748 127.332ZM87.0093 209.637C77.0772 207.584 67.655 204.146 58.7381 199.325 54.2751 196.879 50.0134 194.129 45.944 191.074 41.9417 188.024 38.1585 184.724 34.5944 181.174 32.8593 179.416 31.1869 177.6 29.5815 175.722 27.976 173.844 26.4377 171.912 24.9709 169.927 23.5042 167.941 22.1089 165.902 20.7897 163.814 19.4705 161.725 18.2274 159.592 17.0602 157.414 15.893 155.237 14.8064 153.023 13.8002 150.765 12.794 148.511 11.8684 146.221 11.0276 143.9 10.1869 141.58 9.42671 139.227 8.75593 136.853 8.08515 134.478 7.49486 132.077 6.99401 129.662 6.49316 127.243 6.08175 124.81 5.7553 122.364 5.42886 119.918 5.19185 117.458 5.04427 114.994 4.8967 112.53 4.83857 110.062 4.8654 107.593 4.8967 105.125 5.01297 102.656 5.21868 100.197 5.42438 97.7373 5.71953 95.2867 6.10411 92.8451 6.48869 90.4034 6.95824 87.9841 7.51722 85.5783 8.07621 83.1724 8.72016 80.7889 9.44907 78.4277 10.178 76.0666 10.9919 73.7367 11.8907 71.4382 12.718 69.171 13.7465 67.1049 14.5738 65.0434L15.8125 62.3603C12.6017 69.6539 10.263 77.2159 8.79618 85.0506 7.81236 89.9428 7.17736 94.8798 6.89116 99.8614 6.60496 104.843 6.67204 109.82 7.09239 114.793 7.51275 119.766 8.27744 124.685 9.39541 129.55 10.5089 134.416 11.9623 139.178 13.751 143.838 14.5783 146.105 15.6068 148.377 16.6398 150.438 17.6728 152.5 18.7014 154.772 19.9401 156.833 22.2118 160.996 24.7608 164.981 27.5736 168.795 33.0561 176.147 39.3838 182.681 46.5612 188.391 53.3673 193.771 60.7281 198.243 68.6433 201.798 73.2583 203.873 77.994 205.608 82.8594 206.999 87.7248 208.389 92.6617 209.427 97.6747 210.111 102.688 210.791 107.723 211.108 112.781 211.064 117.838 211.019 122.869 210.612 127.869 209.843 121.121 211.162 114.306 211.806 107.428 211.77 100.55 211.734 93.7439 211.023 87.0093 209.637ZM179.667 182.819 177.189 185.086 174.712 187.354 169.345 191.687C165.594 194.428 161.672 196.906 157.584 199.115L151.395 202.209 144.79 204.892 134.679 208.193 133.646 208.193C126.742 209.633 119.766 210.37 112.709 210.406 105.657 210.442 98.6719 209.771 91.7539 208.403 83.8387 206.793 76.2007 204.315 68.849 200.975 61.0858 197.46 53.8637 193.06 47.1783 187.774 40.0993 182.104 33.8387 175.642 28.4009 168.384 25.5881 164.637 23.0436 160.719 20.7674 156.627 19.5287 154.566 18.4957 152.5 17.4671 150.233 16.4341 147.965 15.4056 145.899 14.784 143.632 13.9522 141.463 13.192 139.268 12.5034 137.045 11.8192 134.823 11.2065 132.582 10.6699 130.324 10.1333 128.061 9.67266 125.785 9.28808 123.495 8.9035 121.201 8.59494 118.903 8.36688 116.591 8.13434 114.279 7.9823 111.962 7.90627 109.637 7.83025 107.316 7.83025 104.991 7.91075 102.67 7.99124 100.349 8.14775 98.028 8.38029 95.716 8.61283 93.404 8.92586 91.101 9.31491 88.8114 9.70397 86.5218 10.169 84.2456 10.7057 81.9829 11.2468 79.7246 11.8594 77.4842 12.5526 75.2617 13.2412 73.0436 14.0059 70.8479 14.8422 68.679 15.6784 66.5102 16.5862 64.3726 17.5655 62.2664 18.5449 60.1601 19.5913 58.0852 20.7093 56.0505 21.8272 54.0113 23.0123 52.0168 24.2644 50.0582 25.5165 48.0995 26.8312 46.1855 28.2086 44.3118 29.5859 42.4426 31.0259 40.618 32.5284 38.8427L34.1785 37.1926 35.2115 35.9539 36.4502 34.7152 38.9277 32.4479 43.8825 28.1147C46.8071 25.7446 49.8525 23.5399 53.0185 21.5008 56.1846 19.4616 59.4491 17.5968 62.8164 15.9109 66.1837 14.225 69.6316 12.727 73.1599 11.4122 76.6882 10.102 80.2791 8.984 83.9281 8.05832 87.5772 7.13711 91.2665 6.41267 94.996 5.88946 98.7256 5.36625 102.473 5.04427 106.234 4.92801 109.995 4.81174 113.756 4.8967 117.512 5.18737 121.268 5.47805 124.993 5.96995 128.696 6.66309 139.393 8.59047 149.504 12.168 159.033 17.3911 165.173 20.7629 170.884 24.7474 176.161 29.3534L180.288 33.065 181.733 34.3037 182.971 35.7482 186.687 39.8757C189.612 43.2251 192.313 46.7445 194.781 50.4427 197.25 54.141 199.468 57.9823 201.436 61.9712 203.403 65.9602 205.107 70.0564 206.538 74.2644 207.973 78.4725 209.127 82.7565 210.008 87.1121 211.368 93.9943 212.034 100.944 211.998 107.956 211.962 114.972 211.233 121.912 209.802 128.781 208.179 136.625 205.702 144.187 202.375 151.471 198.735 159.257 194.196 166.474 188.753 173.129L184.42 178.079 179.667 182.819ZM215.781 85.2518C214.243 77.2785 211.837 69.5779 208.559 62.1501 207.343 59.4491 206.015 56.8018 204.575 54.2081 203.135 51.6188 201.588 49.0922 199.933 46.6327 198.278 44.1732 196.525 41.7852 194.67 39.4732 192.814 37.1613 190.864 34.9298 188.825 32.7833 186.781 30.6368 184.653 28.5753 182.435 26.6077 180.217 24.64 177.922 22.7663 175.548 20.991 173.173 19.2156 170.727 17.5432 168.214 15.9735 165.696 14.4039 163.121 12.9461 160.482 11.5911 157.844 10.2406 155.152 9.00188 152.41 7.87497 149.669 6.74806 146.879 5.74189 144.052 4.85198 141.222 3.96208 138.364 3.19292 135.471 2.5445 132.578 1.89607 129.662 1.37287 126.724 0.965925 123.786 0.563456 120.839 0.2862 117.874 0.129684 114.914-0.0223594 111.949-0.0536625 108.989 0.0447187 106.024 0.138628 103.072 0.362222 100.125 0.706556 97.1783 1.05089 94.2537 1.52044 91.3515 2.11072 87.367 2.90672 83.4497 3.93972 79.5904 5.20526 73.9961 6.60049 68.5628 8.45632 63.286 10.7727 61.6135 11.5151 59.9589 12.3021 58.3267 13.1294 56.6944 13.9567 55.0845 14.8287 53.4926 15.7365 51.905 16.6488 50.3399 17.6013 48.8016 18.5896 47.2632 19.5823 45.7473 20.6109 44.2626 21.6841 42.778 22.7529 41.3201 23.8619 39.8891 25.0067 38.4581 26.1515 37.0629 27.3321 35.6945 28.5484 34.3261 29.7648 32.989 31.0169 31.6877 32.3048 30.3864 33.5927 29.1164 34.9119 27.8777 36.2624 26.6434 37.6129 25.4405 38.9947 24.2778 40.4079 23.1151 41.821 21.9882 43.2654 20.8971 44.7366 19.8059 46.2079 18.755 47.706 17.7444 49.2309 16.7338 50.7558 15.7589 52.3075 14.8287 53.8816 13.8986 55.4557 13.0042 57.0566 12.1546 58.6799 11.3049 60.3032 10.5 61.9444 9.73527 63.6079 8.97058 65.2715 8.25061 66.9529 7.57088 68.6522 6.89116 70.3515 6.26062 72.0687 5.67034 73.8038 5.08005 75.5389 4.53895 77.2829 4.0381 79.0449 3.53725 80.8068 3.08559 82.5776 2.67865 84.3619 2.27171 86.1462 1.90949 87.9394 1.59646 89.746 1.28343 91.5482 1.01512 93.3593 0.791522 95.1749 0.567928 96.9905 0.393525 98.815 0.268312 100.64 0.138628 102.464 0.0626062 104.293 0.0268312 106.127-0.00447187 107.956 0.00894375 109.789 0.0670781 111.618 0.129684 113.447 0.237009 115.276 0.393525 117.101 0.550041 118.925 0.751275 120.745 1.0017 122.556 1.25212 124.372 1.54727 126.174 1.8916 127.976 2.23594 129.774 2.62499 131.563 3.05876 133.342 3.49253 135.122 3.9755 136.889 4.49871 138.642 5.02639 140.395 5.59432 142.134 6.21143 143.856 6.82855 145.582 7.48592 147.286 8.19247 148.976 8.89456 150.666 9.64583 152.339 10.4329 153.989 11.2244 155.639 12.0562 157.271 12.9282 158.877 15.4369 163.478 18.2587 167.879 21.389 172.078 24.5685 176.228 28.0074 180.145 31.7056 183.834 33.5256 185.645 35.4128 187.389 37.358 189.066 39.3078 190.743 41.3112 192.344 43.3772 193.878 45.4432 195.408 47.5584 196.865 49.7272 198.243 51.8961 199.62 54.1142 200.917 56.3769 202.138 58.6397 203.354 60.9427 204.49 63.2904 205.541 65.6337 206.592 68.0172 207.558 70.432 208.439 72.8468 209.32 75.2885 210.111 77.7614 210.813 80.2344 211.515 82.7297 212.128 85.2429 212.651 87.7605 213.174 90.2916 213.604 92.8406 213.948 95.3896 214.288 97.943 214.534 100.51 214.69 103.077 214.847 105.644 214.909 108.215 214.878 110.786 214.847 113.349 214.726 115.911 214.511 118.473 214.297 121.022 213.988 123.562 213.59 126.102 213.192 128.625 212.7 131.124 212.119 133.624 211.538 136.106 210.867 138.561 210.107 141.016 209.346 143.44 208.497 145.832 207.562L152.643 204.673 158.832 201.579C163 199.24 166.989 196.624 170.803 193.739L176.375 189.406 178.853 187.139 181.124 185.283 185.252 181.572 186.696 180.333 187.935 178.888 191.651 174.761C196.311 169.484 200.371 163.773 203.828 157.638 209.279 148.14 213.13 138.033 215.383 127.314 216.85 120.383 217.619 113.38 217.691 106.296 217.745 99.2309 217.114 92.2101 215.781 85.2518L215.781 85.2518Z" fill="url(#fill1)" transform="matrix(1.00146 0 0 1 -1.27227e-14 0.0497967)"/><path d="M118.286 54.1768C113.492 58.9706 113.089 64.1938 114.61 67.6326 114.753 67.9501 114.726 68.3392 114.413 68.6164L89.1871 91.025C87.054 92.9211 87.1479 95.1794 89.2407 97.2677 91.3291 99.3561 93.5874 99.4545 95.4835 97.3214L117.901 72.1045C118.178 71.7959 118.567 71.7691 118.885 71.9077 122.324 73.4237 127.551 73.0212 132.345 68.2319 137.412 63.1697 138.637 55.7777 134.693 51.8335 130.744 47.8848 123.352 49.1146 118.286 54.1768Z" fill="url(#fill2)" transform="matrix(1.00146 0 0 1 -1.27227e-14 0.0497967)"/><path d="M98.7077 71.6215C98.9984 71.4337 99.3651 71.4203 99.6378 71.7289L103.189 75.7178 107.343 72.0285 103.108 68.2632C102.164 67.9859 102.813 67.6237 103.001 67.333 105.241 63.8941 104.043 60.3122 100.827 57.6112L90.5197 49.1638C89.8444 48.6137 89.1692 48.578 88.5834 49.1638 87.9931 49.7541 87.9931 50.5143 88.5834 51.1001L97.1157 59.6235C97.7373 60.2451 97.7373 61.0456 97.1157 61.6671L97.071 61.7163C96.4494 62.3379 95.6489 62.3379 95.0273 61.7163L86.4995 53.1885C85.9092 52.6027 85.149 52.6027 84.5631 53.1885 83.9729 53.7788 83.9729 54.539 84.5631 55.1248L93.091 63.6527C93.7126 64.2743 93.7126 65.0747 93.091 65.6963L93.0463 65.7455C92.4247 66.3671 91.6242 66.3671 91.0026 65.7455L82.4703 57.2176C81.88 56.6318 81.1243 56.6273 80.534 57.2176 79.9437 57.8034 79.9884 58.4787 80.534 59.154L88.9858 69.4572C91.6868 72.668 95.2688 73.862 98.7077 71.6215Z" fill="url(#fill3)" transform="matrix(1.00146 0 0 1 -1.27227e-14 0.0497967)"/><path d="M128.705 91.025 114.869 78.7184 110.37 83.7806 122.418 97.3125C124.314 99.4455 126.567 99.3472 128.656 97.2588 130.74 95.1749 130.838 92.9211 128.705 91.025Z" fill="url(#fill4)" transform="matrix(1.00146 0 0 1 -1.27227e-14 0.0497967)"/><path d="M161.394 136.535C161.126 136.535 160.862 136.468 160.594 136.437L160.196 136.339C159.865 136.204 159.633 135.941 159.53 135.574 159.463 135.31 159.395 135.01 159.395 134.711L159.395 133.812 159.395 124.899 159.395 115.987 159.395 115.124C159.395 115.124 159.463 114.525 159.53 114.225 159.664 113.76 159.995 113.46 160.46 113.362 160.594 113.331 160.728 113.295 160.858 113.295 161.09 113.295 161.292 113.264 161.524 113.264L164.319 113.264C164.587 113.264 164.851 113.295 165.119 113.295 165.817 113.393 166.349 113.729 166.685 114.323 166.783 114.556 166.886 114.757 166.984 114.99 167.749 116.72 168.482 118.482 169.247 120.208 169.712 121.273 170.177 122.337 170.642 123.366 170.776 123.697 170.942 123.996 171.107 124.296 171.241 124.528 171.376 124.694 171.572 124.828 171.774 124.962 172.037 124.895 172.136 124.73 172.203 124.631 172.234 124.528 172.27 124.43 172.368 124.166 172.404 123.866 172.404 123.567 172.435 122.968 172.435 122.368 172.435 121.805L172.435 116.018 172.435 115.222C172.467 114.891 172.503 114.556 172.57 114.256 172.668 113.791 172.968 113.523 173.433 113.393 173.665 113.326 173.898 113.295 174.13 113.295 174.962 113.264 175.794 113.264 176.626 113.295 176.858 113.295 177.126 113.326 177.359 113.393 177.793 113.527 178.092 113.827 178.191 114.292 178.258 114.592 178.289 114.923 178.289 115.222 178.32 115.486 178.32 115.754 178.32 116.054L178.32 133.709C178.32 134.009 178.32 134.308 178.289 134.572 178.289 134.939 178.258 135.27 178.155 135.601 178.021 135.967 177.788 136.2 177.457 136.334 177.158 136.468 176.894 136.499 176.594 136.499 175.365 136.531 174.135 136.531 172.901 136.499 172.699 136.499 172.534 136.468 172.337 136.432 171.774 136.334 171.34 136.034 171.04 135.569 170.906 135.337 170.808 135.136 170.709 134.903 170.441 134.34 170.177 133.74 169.909 133.172 169.408 132.041 168.912 130.91 168.379 129.783 168.08 129.085 167.749 128.388 167.449 127.69 167.248 127.256 167.051 126.858 166.85 126.424 166.685 126.093 166.452 125.794 166.184 125.526 166.018 125.36 165.719 125.391 165.553 125.593 165.419 125.794 165.388 125.991 165.352 126.192 165.285 126.858 165.187 127.52 165.218 128.186L165.218 130.382C165.187 131.71 165.218 133.043 165.187 134.371 165.187 134.702 165.187 135.037 165.155 135.337 165.088 135.869 164.721 136.303 164.189 136.401 163.921 136.468 163.626 136.499 163.326 136.535L161.394 136.535ZM150.192 136.535C149.924 136.535 149.66 136.468 149.392 136.437 149.258 136.437 149.124 136.406 149.025 136.339 148.694 136.24 148.462 136.008 148.359 135.672 148.261 135.44 148.193 135.171 148.193 134.908 148.162 134.644 148.162 134.375 148.162 134.112L148.162 115.625C148.162 115.258 148.162 114.86 148.229 114.493 148.328 113.796 148.761 113.398 149.459 113.295 149.66 113.295 149.893 113.264 150.09 113.264L152.817 113.264C152.983 113.264 153.148 113.264 153.318 113.295 153.452 113.326 153.618 113.362 153.783 113.393 154.181 113.527 154.45 113.827 154.584 114.225 154.651 114.525 154.682 114.824 154.682 115.124 154.682 115.388 154.713 115.687 154.713 115.987L154.713 124.899 154.713 133.843C154.713 134.143 154.682 134.407 154.682 134.706 154.682 135.006 154.651 135.306 154.548 135.605 154.45 135.936 154.217 136.204 153.882 136.339 153.748 136.37 153.613 136.437 153.484 136.437 153.215 136.468 152.952 136.535 152.683 136.535L150.192 136.535 150.192 136.535ZM131.013 136.535C130.512 136.535 130.047 136.535 129.581 136.401 129.313 136.334 129.116 136.236 128.951 136.07 128.786 135.869 128.651 135.672 128.62 135.44 128.589 135.238 128.553 135.073 128.553 134.876L128.553 133.91 128.553 124.899 128.553 115.754C128.553 115.424 128.553 115.057 128.584 114.726 128.584 114.493 128.616 114.292 128.683 114.095 128.817 113.764 129.014 113.532 129.349 113.429 129.617 113.331 129.881 113.295 130.149 113.295 130.449 113.264 130.749 113.264 131.013 113.264L142.291 113.264C142.559 113.264 142.854 113.264 143.154 113.295 143.386 113.295 143.587 113.326 143.784 113.393 144.249 113.492 144.518 113.827 144.616 114.256 144.647 114.422 144.683 114.587 144.683 114.757L144.683 116.917C144.683 117.051 144.652 117.181 144.652 117.315 144.553 117.879 144.151 118.281 143.587 118.344 143.386 118.375 143.189 118.411 143.024 118.411L142.058 118.411 137.635 118.411C137.336 118.411 137.036 118.411 136.736 118.442 136.468 118.442 136.204 118.473 135.972 118.576 135.574 118.71 135.341 118.974 135.171 119.341 135.171 119.408 135.14 119.475 135.104 119.573 135.006 120.137 135.006 120.736 135.073 121.335L135.171 121.635C135.337 122.136 135.672 122.431 136.204 122.534 136.473 122.601 136.736 122.601 137.005 122.601L138.932 122.601C139.33 122.601 139.733 122.632 140.131 122.699 140.265 122.731 140.399 122.731 140.529 122.798 140.86 122.896 141.128 123.129 141.226 123.495 141.325 123.759 141.392 124.059 141.392 124.358L141.392 126.12C141.392 126.384 141.325 126.652 141.258 126.916 141.123 127.314 140.86 127.547 140.457 127.65 140.359 127.717 140.225 127.717 140.09 127.748 139.558 127.779 139.026 127.846 138.463 127.846 137.962 127.815 137.465 127.815 136.965 127.846 136.696 127.846 136.464 127.846 136.231 127.878 135.699 127.945 135.368 128.276 135.167 128.777 134.966 129.277 134.966 129.805 135.167 130.337 135.368 130.869 135.699 131.2 136.298 131.236 137.063 131.303 137.828 131.334 138.592 131.37L142.452 131.37C142.818 131.37 143.149 131.37 143.516 131.402 143.717 131.433 143.914 131.469 144.115 131.603 144.415 131.835 144.616 132.104 144.647 132.466 144.679 132.6 144.679 132.73 144.679 132.864L144.679 134.957C144.679 135.122 144.647 135.323 144.611 135.52 144.513 135.954 144.245 136.218 143.847 136.352 143.547 136.45 143.283 136.486 142.984 136.486 142.751 136.517 142.483 136.517 142.25 136.517L131.013 136.517 131.013 136.535ZM114.824 136.531C114.476 136.526 114.127 136.482 113.791 136.392 113.371 136.276 113.094 135.999 112.964 135.587 112.901 135.386 112.875 135.167 112.861 134.957 112.843 134.608 112.843 134.259 112.843 133.91 112.843 129.734 112.843 125.552 112.843 121.376 112.843 120.973 112.843 120.571 112.825 120.168 112.816 119.954 112.794 119.739 112.74 119.533 112.606 119.032 112.289 118.692 111.779 118.545 111.466 118.455 111.148 118.424 110.826 118.42 110.317 118.415 109.807 118.415 109.297 118.415 109.002 118.415 108.707 118.415 108.412 118.397 108.224 118.388 108.036 118.375 107.853 118.33 107.338 118.205 106.994 117.892 106.9 117.36 106.721 116.349 106.721 115.334 106.896 114.323 106.981 113.823 107.289 113.51 107.768 113.375 107.996 113.313 108.242 113.286 108.479 113.273 108.801 113.255 109.123 113.259 109.445 113.259 111.667 113.259 113.894 113.259 116.117 113.259 118.339 113.259 120.566 113.259 122.789 113.259 123.111 113.259 123.433 113.255 123.755 113.277 123.992 113.295 124.238 113.331 124.466 113.402 124.846 113.523 125.101 113.791 125.226 114.171 125.32 114.453 125.36 114.744 125.365 115.043 125.369 115.607 125.378 116.17 125.36 116.729 125.356 116.966 125.315 117.212 125.248 117.44 125.11 117.914 124.788 118.223 124.3 118.326 124.041 118.379 123.768 118.397 123.504 118.402 122.941 118.415 122.377 118.406 121.818 118.411 121.577 118.411 121.335 118.406 121.094 118.424 120.879 118.442 120.665 118.464 120.459 118.523 119.891 118.679 119.529 119.046 119.426 119.632 119.363 119.971 119.341 120.32 119.319 120.669 119.301 120.964 119.31 121.259 119.31 121.554 119.31 125.655 119.31 129.751 119.31 133.848 119.31 134.223 119.31 134.599 119.292 134.975 119.283 135.162 119.265 135.35 119.211 135.529 119.082 135.967 118.795 136.271 118.344 136.401 118.057 136.482 117.767 136.526 117.472 136.526 116.591 136.535 115.71 136.54 114.824 136.531L114.824 136.531ZM92.8764 132.081C93.8736 132.345 94.8037 132.247 95.6713 131.648 95.9709 131.446 96.2347 131.182 96.4717 130.883 96.7401 130.516 96.9726 130.118 97.1694 129.684 97.5674 128.754 97.7999 127.757 97.9027 126.724L98.0011 125.526C98.0324 125.195 98.0324 124.828 98.0324 124.497 97.9654 123.531 97.8983 122.57 97.7015 121.604 97.5674 120.906 97.3348 120.208 96.9681 119.573 96.7669 119.14 96.5031 118.777 96.1677 118.478 95.6042 117.977 94.9692 117.646 94.2403 117.548 93.2073 117.414 92.3129 117.713 91.5795 118.447 91.0161 118.979 90.6494 119.609 90.3811 120.343 90.1485 120.973 89.9473 121.671 89.8489 122.337 89.7505 123.169 89.6477 124.001 89.6834 124.797 89.6521 125.593 89.7147 126.326 89.8176 127.091 89.8847 127.788 90.0501 128.455 90.2514 129.121 90.4168 129.653 90.6494 130.118 90.949 130.583 91.4454 131.285 92.0446 131.813 92.8764 132.081L92.8764 132.081ZM93.3414 136.969C92.5768 136.902 91.8434 136.804 91.1144 136.669 89.7505 136.437 88.5208 135.936 87.3894 135.207 86.0568 134.375 85.0595 133.244 84.3306 131.849 83.6643 130.619 83.2976 129.322 83.0651 127.958 82.8996 126.961 82.8638 125.928 82.8638 124.899L82.8638 123.871C82.8951 122.543 83.1635 121.246 83.5301 119.98 83.8968 118.782 84.4603 117.686 85.225 116.689 85.8913 115.79 86.6873 115.061 87.6219 114.426 89.2184 113.429 90.949 112.866 92.8451 112.799L94.3744 112.799C95.9709 112.866 97.5361 113.197 98.9984 113.827 100.564 114.493 101.86 115.558 102.822 116.953 103.654 118.183 104.186 119.578 104.485 121.045 104.852 122.74 104.95 124.501 104.816 126.232 104.651 128.195 104.217 130.056 103.251 131.786 101.918 134.246 99.8927 135.873 97.1649 136.576 96.3331 136.808 95.4701 136.942 94.6383 136.974 94.209 137 93.7752 137 93.3414 136.969ZM69.2336 124.667C70.034 124.698 70.7987 124.533 71.4963 124.166 72.0956 123.835 72.5606 123.37 72.9273 122.802 72.9944 122.637 73.0615 122.503 73.1286 122.337 73.6607 120.709 72.9631 119.01 71.3666 118.348 71.067 118.214 70.7361 118.116 70.4007 118.017 69.9356 117.919 69.5019 117.883 69.0368 117.95 68.4733 118.017 68.1067 118.317 67.9412 118.88 67.8741 119.113 67.8428 119.381 67.8428 119.676L67.8428 121.273 67.8428 122.869C67.8428 123.102 67.8428 123.303 67.9099 123.5 68.0038 124.068 68.4689 124.667 69.2336 124.667L69.2336 124.667ZM79.2819 137C77.9179 136.902 76.6211 136.602 75.4226 135.936 73.6249 134.97 72.3281 133.575 71.5634 131.679 71.3979 131.312 71.2638 130.945 71.1296 130.547 71.0312 130.315 70.9284 130.047 70.83 129.814 70.5975 129.38 70.2308 129.116 69.7344 129.049 69.5332 129.049 69.3006 129.018 69.1039 129.049 68.5046 129.116 68.0083 129.581 67.9054 130.181 67.8741 130.346 67.8383 130.547 67.8383 130.744L67.8383 131.71 67.8383 134.438C67.807 134.805 67.807 135.136 67.7042 135.466 67.6729 135.601 67.6371 135.73 67.57 135.865 67.4359 136.128 67.2033 136.298 66.9037 136.397 66.5728 136.495 66.2374 136.531 65.8707 136.531L63.2099 136.531C62.9103 136.531 62.5794 136.499 62.2798 136.397 61.8147 136.262 61.5151 135.963 61.4167 135.534 61.3496 135.167 61.3183 134.836 61.2826 134.505L61.2826 133.606 61.2826 124.828 61.2826 115.983C61.2826 115.517 61.2826 115.017 61.3809 114.552 61.4123 114.386 61.4123 114.221 61.4793 114.086 61.6135 113.72 61.846 113.487 62.2127 113.389 62.414 113.322 62.6465 113.29 62.8433 113.29 63.0758 113.259 63.277 113.259 63.5096 113.259L70.0966 113.259C71.1609 113.259 72.2252 113.393 73.2896 113.59 74.0542 113.724 74.8189 113.957 75.5165 114.256 75.8832 114.391 76.2142 114.556 76.5495 114.721 77.5155 115.187 78.2802 115.884 78.9107 116.716 79.5412 117.512 79.8766 118.411 80.0421 119.377 80.1092 119.676 80.1405 120.007 80.1762 120.307 80.1762 120.508 80.2075 120.705 80.1762 120.87 80.1092 121.769 79.975 122.632 79.7112 123.495 79.3802 124.425 78.8481 125.257 78.1147 125.955 77.7838 126.286 77.4171 126.554 77.0817 126.854 76.9475 126.988 76.7821 127.118 76.6479 127.252 76.1471 127.753 76.0487 128.347 76.2812 129.014 76.5138 129.613 76.9475 130.042 77.4797 130.378 78.0118 130.677 78.544 130.878 79.1432 131.044 79.4116 131.111 79.7067 131.178 80.0063 131.245 80.771 131.41 81.1019 131.876 81.169 132.64 81.2003 132.774 81.2003 132.904 81.2003 133.038L81.2003 135.234C81.2003 135.466 81.169 135.699 81.1332 135.932 81.0348 136.397 80.7352 136.696 80.3015 136.862 79.9795 136.969 79.6128 137.036 79.2819 137L79.2819 137ZM46.6595 124.533C46.9279 124.564 47.1917 124.564 47.46 124.533 48.5556 124.501 49.4902 124.099 50.2192 123.267 50.5188 122.936 50.72 122.57 50.8497 122.172 51.0509 121.407 50.9838 120.674 50.6842 119.945 50.4517 119.381 50.085 118.947 49.5886 118.616 48.7255 118.084 47.7909 117.883 46.8295 117.95 46.1632 117.981 45.6668 118.451 45.5326 119.082 45.5013 119.314 45.5013 119.515 45.5013 119.748L45.5013 121.246 45.5013 122.874C45.5013 123.106 45.5326 123.339 45.5997 123.571 45.7294 124.135 46.0961 124.434 46.6595 124.533L46.6595 124.533ZM40.7701 136.535C40.5018 136.535 40.2379 136.468 39.9696 136.401 39.7371 136.37 39.5358 136.2 39.3704 136.034 39.2049 135.869 39.1021 135.704 39.0708 135.471 39.0395 135.27 39.0395 135.104 39.0037 134.908L39.0037 133.879 39.0037 124.868 39.0037 115.79C39.0037 115.459 39.0037 115.093 39.035 114.762 39.035 114.529 39.0663 114.328 39.1334 114.131 39.2318 113.8 39.4643 113.568 39.7639 113.434 39.9651 113.366 40.1619 113.299 40.3944 113.299 40.627 113.268 40.8595 113.268 41.0921 113.268L47.7775 113.268C49.1727 113.268 50.5724 113.469 51.9006 113.8 53.1303 114.1 54.2304 114.632 55.2276 115.361 56.4932 116.26 57.2579 117.49 57.6246 118.983 57.8571 119.913 57.8929 120.879 57.723 121.841 57.5575 122.869 57.2221 123.871 56.69 124.765 56.5245 125.029 56.359 125.266 56.1578 125.499 55.1919 126.63 53.9621 127.395 52.5311 127.927 51.4981 128.325 50.4338 128.557 49.3382 128.692 48.739 128.759 48.1084 128.857 47.5092 128.893 47.2096 128.893 46.91 128.96 46.6104 128.991 46.512 129.023 46.3778 129.058 46.2437 129.125 45.9753 129.26 45.7786 129.456 45.6444 129.756 45.546 129.988 45.5103 130.221 45.479 130.454L45.479 131.419C45.4477 132.385 45.479 133.347 45.4477 134.313L45.4477 135.046C45.4164 135.212 45.3806 135.413 45.3493 135.578 45.2509 135.945 45.0184 136.178 44.683 136.343 44.5488 136.374 44.4147 136.441 44.285 136.441 44.0837 136.473 43.8512 136.54 43.6544 136.54L40.7701 136.54Z" fill="url(#fill5)" transform="matrix(1.00146 0 0 1 -1.27227e-14 0.0497967)"/><path d="M166.85 161.497C167.101 161.529 167.346 161.497 167.597 161.435 169.368 161.095 170.611 160.066 171.358 158.421 171.792 157.549 171.979 156.587 172.042 155.594L172.042 154.105C172.011 153.358 171.885 152.616 171.671 151.901 171.514 151.31 171.268 150.783 170.924 150.286 170.615 149.853 170.271 149.508 169.837 149.231 169.153 148.766 168.344 148.515 167.507 148.484 167.257 148.453 166.98 148.484 166.698 148.515 166.448 148.515 166.233 148.641 166.045 148.824 165.795 149.043 165.643 149.352 165.611 149.665 165.58 150.005 165.58 150.318 165.549 150.657L165.549 155.009 165.549 157.62C165.549 158.273 165.549 158.926 165.58 159.579 165.58 159.829 165.58 160.075 165.611 160.326 165.701 161.028 166.135 161.435 166.85 161.497L166.85 161.497ZM161.69 165.875C161.287 165.875 160.911 165.875 160.509 165.781 160.29 165.719 160.075 165.625 159.919 165.473 159.731 165.285 159.61 165.07 159.579 164.82 159.548 164.632 159.516 164.48 159.516 164.292L159.516 163.393 159.516 154.973 159.516 146.584 159.516 145.591C159.548 145.403 159.548 145.188 159.61 145.001 159.704 144.661 159.95 144.379 160.294 144.254 160.451 144.222 160.634 144.191 160.791 144.16 161.041 144.129 161.256 144.129 161.475 144.129L167.409 144.129C168.809 144.129 170.146 144.348 171.479 144.719 172.972 145.121 174.278 145.805 175.396 146.861 176.205 147.639 176.827 148.538 177.261 149.562 177.726 150.586 178.007 151.704 178.133 152.822 178.258 153.569 178.352 154.311 178.32 155.058 178.289 156.144 178.164 157.2 177.918 158.26 177.578 159.659 176.988 160.961 176.116 162.079 175.338 163.103 174.408 163.912 173.29 164.534 171.921 165.28 170.463 165.652 168.907 165.777 167.883 165.871 166.855 165.871 165.831 165.871L161.69 165.871 161.69 165.875ZM143.489 165.875C143.024 165.875 142.586 165.875 142.152 165.75 141.902 165.687 141.718 165.594 141.562 165.441 141.405 165.254 141.28 165.07 141.249 164.851 141.217 164.663 141.186 164.511 141.186 164.324L141.186 163.425 141.186 155.004 141.186 146.463C141.186 146.154 141.186 145.81 141.217 145.501 141.217 145.282 141.249 145.099 141.311 144.911 141.436 144.603 141.624 144.383 141.933 144.29 142.183 144.196 142.429 144.164 142.68 144.164 142.961 144.133 143.239 144.133 143.489 144.133L154.025 144.133C154.275 144.133 154.552 144.133 154.834 144.164 155.053 144.164 155.237 144.196 155.424 144.258 155.858 144.352 156.109 144.661 156.203 145.068 156.234 145.224 156.265 145.376 156.265 145.533L156.265 147.554C156.265 147.679 156.234 147.804 156.234 147.925 156.14 148.453 155.769 148.824 155.241 148.887 155.053 148.918 154.87 148.949 154.713 148.949L153.81 148.949 149.678 148.949C149.396 148.949 149.119 148.949 148.837 148.98 148.587 148.98 148.341 149.012 148.122 149.106 147.751 149.231 147.532 149.477 147.375 149.821 147.375 149.884 147.344 149.946 147.312 150.04 147.219 150.568 147.219 151.127 147.281 151.686L147.375 151.968C147.532 152.433 147.84 152.715 148.337 152.808 148.587 152.871 148.833 152.871 149.083 152.871L150.886 152.871C151.257 152.871 151.632 152.902 152.003 152.965 152.129 152.996 152.254 152.996 152.375 153.059 152.688 153.153 152.934 153.367 153.028 153.712 153.121 153.962 153.184 154.239 153.184 154.521L153.184 156.167C153.184 156.417 153.121 156.663 153.059 156.914 152.934 157.285 152.688 157.504 152.312 157.598 152.218 157.66 152.093 157.66 151.972 157.692 151.476 157.723 150.979 157.786 150.447 157.786 149.982 157.754 149.513 157.754 149.048 157.786 148.797 157.786 148.583 157.786 148.363 157.817 147.867 157.88 147.554 158.188 147.371 158.658 147.183 159.123 147.183 159.619 147.371 160.12 147.558 160.616 147.867 160.929 148.426 160.961 149.141 161.023 149.857 161.055 150.572 161.086L154.177 161.086C154.517 161.086 154.83 161.086 155.17 161.117 155.357 161.148 155.541 161.18 155.729 161.305 156.01 161.524 156.194 161.77 156.225 162.114 156.256 162.24 156.256 162.365 156.256 162.486L156.256 164.444C156.256 164.601 156.225 164.784 156.194 164.972 156.1 165.374 155.854 165.625 155.478 165.75 155.196 165.844 154.95 165.875 154.669 165.875 154.45 165.907 154.204 165.907 153.985 165.907L143.489 165.907 143.489 165.875ZM127.52 154.66C127.77 154.691 128.016 154.691 128.267 154.66 129.291 154.628 130.163 154.257 130.847 153.479 131.129 153.171 131.312 152.826 131.437 152.455 131.625 151.74 131.563 151.055 131.281 150.376 131.062 149.848 130.722 149.446 130.257 149.133 129.447 148.636 128.58 148.448 127.676 148.511 127.055 148.542 126.59 148.976 126.465 149.566 126.433 149.785 126.433 149.969 126.433 150.188L126.433 151.588 126.433 153.108C126.433 153.327 126.465 153.542 126.527 153.761 126.652 154.289 126.992 154.566 127.52 154.66L127.52 154.66ZM122.02 165.875C121.769 165.875 121.523 165.813 121.273 165.75 121.054 165.719 120.87 165.562 120.714 165.41 120.557 165.254 120.463 165.102 120.432 164.882 120.401 164.695 120.401 164.543 120.369 164.355L120.369 163.393 120.369 154.973 120.369 146.49C120.369 146.181 120.369 145.837 120.401 145.528 120.401 145.309 120.432 145.126 120.495 144.938 120.589 144.629 120.803 144.41 121.085 144.285 121.273 144.222 121.456 144.16 121.675 144.16 121.894 144.129 122.109 144.129 122.328 144.129L128.575 144.129C129.881 144.129 131.187 144.316 132.43 144.625 133.579 144.907 134.608 145.403 135.538 146.087 136.719 146.928 137.434 148.077 137.774 149.472 137.993 150.344 138.024 151.243 137.868 152.142 137.711 153.104 137.403 154.038 136.906 154.874 136.75 155.125 136.593 155.34 136.41 155.559 135.507 156.614 134.357 157.329 133.02 157.826 132.059 158.197 131.062 158.416 130.038 158.541 129.479 158.604 128.888 158.698 128.329 158.729 128.048 158.729 127.77 158.792 127.489 158.823 127.395 158.854 127.27 158.886 127.149 158.948 126.898 159.074 126.715 159.257 126.59 159.539 126.496 159.758 126.465 159.972 126.433 160.191L126.433 161.09C126.402 161.989 126.433 162.893 126.402 163.791L126.402 164.476C126.371 164.632 126.339 164.815 126.308 164.972 126.214 165.312 125.995 165.531 125.687 165.687 125.561 165.719 125.436 165.781 125.315 165.781 125.128 165.813 124.913 165.875 124.725 165.875L122.02 165.875 122.02 165.875ZM106.708 154.66C106.958 154.691 107.204 154.691 107.455 154.66 108.479 154.628 109.351 154.257 110.035 153.479 110.317 153.171 110.5 152.826 110.625 152.455 110.813 151.74 110.75 151.055 110.469 150.376 110.25 149.848 109.91 149.446 109.445 149.133 108.635 148.636 107.768 148.448 106.864 148.511 106.243 148.542 105.778 148.976 105.653 149.566 105.621 149.785 105.621 149.969 105.621 150.188L105.621 151.588 105.621 153.108C105.621 153.327 105.653 153.542 105.715 153.761 105.836 154.289 106.176 154.566 106.708 154.66L106.708 154.66ZM101.203 165.875C100.953 165.875 100.707 165.813 100.456 165.75 100.237 165.719 100.054 165.562 99.8972 165.41 99.7407 165.254 99.6468 165.102 99.6155 164.882 99.5842 164.695 99.5842 164.543 99.5529 164.355L99.5529 163.393 99.5529 154.973 99.5529 146.49C99.5529 146.181 99.5529 145.837 99.5842 145.528 99.5842 145.309 99.6155 145.126 99.6781 144.938 99.772 144.629 99.9866 144.41 100.268 144.285 100.456 144.222 100.64 144.16 100.859 144.16 101.078 144.129 101.292 144.129 101.512 144.129L107.759 144.129C109.065 144.129 110.37 144.316 111.614 144.625 112.763 144.907 113.791 145.403 114.721 146.087 115.902 146.928 116.618 148.077 116.957 149.472 117.177 150.344 117.208 151.243 117.051 152.142 116.895 153.104 116.586 154.038 116.09 154.874 115.933 155.125 115.777 155.34 115.593 155.559 114.69 156.614 113.541 157.329 112.204 157.826 111.242 158.197 110.245 158.416 109.221 158.541 108.662 158.604 108.072 158.698 107.513 158.729 107.231 158.729 106.954 158.792 106.672 158.823 106.578 158.854 106.453 158.886 106.332 158.948 106.082 159.074 105.898 159.257 105.773 159.539 105.679 159.758 105.648 159.972 105.617 160.191L105.617 161.09C105.585 161.989 105.617 162.893 105.585 163.791L105.585 164.476C105.554 164.632 105.523 164.815 105.492 164.972 105.398 165.312 105.183 165.531 104.87 165.687 104.745 165.719 104.62 165.781 104.499 165.781 104.311 165.813 104.096 165.875 103.908 165.875L101.203 165.875 101.203 165.875ZM83.5301 165.875C83.0651 165.875 82.6268 165.875 82.1931 165.75 81.9426 165.687 81.7593 165.594 81.6028 165.441 81.4463 165.254 81.321 165.07 81.2942 164.851 81.2629 164.663 81.2316 164.511 81.2316 164.324L81.2316 163.425 81.2316 155.004 81.2316 146.463C81.2316 146.154 81.2316 145.81 81.2629 145.501 81.2629 145.282 81.2942 145.099 81.3568 144.911 81.482 144.603 81.6654 144.383 81.9784 144.29 82.2288 144.196 82.4748 144.164 82.7252 144.164 83.0069 144.133 83.2842 144.133 83.5346 144.133L94.0704 144.133C94.3208 144.133 94.598 144.133 94.8798 144.164 95.0989 144.164 95.2822 144.196 95.4701 144.258 95.9038 144.352 96.1543 144.661 96.2482 145.068 96.2795 145.224 96.3108 145.376 96.3108 145.533L96.3108 147.554C96.3108 147.679 96.2795 147.804 96.2795 147.925 96.1855 148.453 95.8144 148.824 95.2867 148.887 95.0989 148.918 94.9155 148.949 94.759 148.949L93.8557 148.949 89.7237 148.949C89.442 148.949 89.1647 148.949 88.883 148.98 88.6326 148.98 88.3866 149.012 88.1675 149.106 87.7963 149.231 87.5772 149.477 87.4207 149.821 87.4207 149.884 87.3894 149.946 87.3581 150.04 87.2642 150.568 87.2642 151.127 87.3268 151.686L87.4207 151.968C87.5772 152.433 87.8857 152.715 88.3821 152.808 88.6326 152.871 88.8785 152.871 89.1289 152.871L90.9311 152.871C91.3023 152.871 91.6779 152.902 92.0491 152.965 92.1743 152.996 92.2995 152.996 92.4202 153.059 92.7288 153.153 92.9792 153.367 93.0731 153.712 93.167 153.962 93.2296 154.239 93.2296 154.521L93.2296 156.167C93.2296 156.417 93.167 156.663 93.1044 156.914 92.9792 157.285 92.7333 157.504 92.3576 157.598 92.2637 157.66 92.1385 157.66 92.0178 157.692 91.5214 157.723 91.025 157.786 90.4929 157.786 90.0278 157.754 89.5582 157.754 89.0932 157.786 88.8427 157.786 88.6281 157.786 88.409 157.817 87.9126 157.88 87.5995 158.188 87.4162 158.658 87.2284 159.123 87.2284 159.619 87.4162 160.12 87.604 160.616 87.9126 160.929 88.4716 160.961 89.1871 161.023 89.9026 161.055 90.6181 161.086L94.2224 161.086C94.5623 161.086 94.8753 161.086 95.2151 161.117 95.403 161.148 95.5863 161.18 95.7741 161.305 96.0559 161.524 96.2392 161.77 96.2705 162.114 96.3018 162.24 96.3018 162.365 96.3018 162.486L96.3018 164.444C96.3018 164.601 96.2705 164.784 96.2392 164.972 96.1453 165.374 95.8993 165.625 95.5237 165.75 95.242 165.844 94.996 165.875 94.7143 165.875 94.4952 165.907 94.2492 165.907 94.0301 165.907L83.5301 165.907ZM67.2525 154.785C67.9993 154.816 68.7148 154.66 69.3677 154.32 69.9267 154.011 70.3605 153.573 70.7048 153.045 70.7674 152.889 70.83 152.764 70.8926 152.612 71.389 151.091 70.7361 149.504 69.247 148.882 68.9652 148.757 68.6567 148.663 68.3437 148.574 67.9099 148.48 67.5029 148.448 67.0692 148.511 66.5415 148.574 66.1972 148.851 66.0451 149.383 65.9825 149.602 65.9512 149.848 65.9512 150.13L65.9512 151.619 65.9512 153.108C65.9512 153.327 65.9512 153.511 66.0138 153.698 66.1033 154.226 66.537 154.785 67.2525 154.785L67.2525 154.785ZM76.639 166.309C75.3645 166.215 74.1526 165.938 73.0347 165.316 71.3577 164.417 70.1458 163.112 69.4303 161.341 69.2738 161.001 69.1486 160.657 69.0279 160.285 68.9339 160.066 68.84 159.82 68.7461 159.601 68.527 159.199 68.1871 158.948 67.7221 158.886 67.5342 158.886 67.3196 158.854 67.1318 158.886 66.5728 158.948 66.1077 159.382 66.0138 159.941 65.9825 160.098 65.9512 160.281 65.9512 160.469L65.9512 161.368 65.9512 163.917C65.9199 164.256 65.9199 164.569 65.826 164.878 65.7947 165.003 65.7634 165.128 65.7008 165.249 65.5756 165.5 65.3609 165.652 65.0792 165.746 64.7662 165.839 64.4576 165.871 64.1177 165.871L61.6314 165.871C61.3496 165.871 61.0411 165.839 60.7594 165.746 60.3256 165.62 60.0439 165.343 59.9499 164.936 59.8873 164.596 59.856 164.283 59.8247 163.975L59.8247 163.134 59.8247 154.933 59.8247 146.677C59.8247 146.244 59.8247 145.779 59.9186 145.34 59.9499 145.184 59.9499 145.032 60.0126 144.907 60.1378 144.567 60.3524 144.348 60.6968 144.254 60.8846 144.191 61.0992 144.16 61.287 144.16 61.5062 144.129 61.6895 144.129 61.9086 144.129L68.0619 144.129C69.0547 144.129 70.0519 144.254 71.0447 144.437 71.7602 144.562 72.4757 144.777 73.1286 145.059 73.4684 145.184 73.7815 145.34 74.09 145.492 74.9933 145.926 75.7044 146.579 76.2947 147.357 76.8849 148.104 77.198 148.94 77.35 149.844 77.4126 150.125 77.4439 150.434 77.4752 150.716 77.4752 150.903 77.5065 151.087 77.4752 151.243 77.4126 152.084 77.2874 152.889 77.0415 153.698 76.7329 154.57 76.232 155.344 75.5479 155.997 75.2348 156.305 74.895 156.556 74.5864 156.838 74.4612 156.963 74.3047 157.088 74.1839 157.209 73.7189 157.674 73.6249 158.233 73.8441 158.854 74.0632 159.413 74.4657 159.816 74.962 160.129 75.4584 160.411 75.9548 160.594 76.5182 160.75 76.7687 160.813 77.0459 160.876 77.3277 160.938 78.0432 161.095 78.3517 161.529 78.4143 162.244 78.4456 162.369 78.4456 162.495 78.4456 162.615L78.4456 164.668C78.4456 164.887 78.4143 165.102 78.383 165.321 78.2891 165.755 78.0118 166.036 77.6049 166.193 77.2919 166.278 76.9475 166.34 76.639 166.309L76.639 166.309ZM46.1587 154.66C46.4091 154.691 46.6551 154.691 46.9055 154.66 47.9296 154.628 48.8016 154.257 49.4858 153.479 49.7675 153.171 49.9508 152.826 50.0761 152.455 50.2639 151.74 50.2013 151.055 49.9195 150.376 49.7004 149.848 49.3605 149.446 48.8955 149.133 48.0861 148.636 47.2185 148.448 46.3152 148.511 45.6936 148.542 45.2285 148.976 45.1033 149.566 45.072 149.785 45.072 149.969 45.072 150.188L45.072 151.588 45.072 153.108C45.072 153.327 45.1033 153.542 45.1659 153.761 45.2867 154.289 45.631 154.566 46.1587 154.66L46.1587 154.66ZM40.6583 165.875C40.4079 165.875 40.1619 165.813 39.9115 165.75 39.6924 165.719 39.509 165.562 39.3525 165.41 39.196 165.254 39.1021 165.102 39.0708 164.882 39.0395 164.695 39.0395 164.543 39.0082 164.355L39.0082 163.393 39.0082 154.973 39.0082 146.49C39.0082 146.181 39.0082 145.837 39.0395 145.528 39.0395 145.309 39.0708 145.126 39.1334 144.938 39.2273 144.629 39.4419 144.41 39.7237 144.285 39.9115 144.222 40.0948 144.16 40.3139 144.16 40.5331 144.129 40.7477 144.129 40.9668 144.129L47.2141 144.129C48.5198 144.129 49.8256 144.316 51.0688 144.625 52.2181 144.907 53.2466 145.403 54.1768 146.087 55.3573 146.928 56.0728 148.077 56.4127 149.472 56.6318 150.344 56.6631 151.243 56.5066 152.142 56.3501 153.104 56.0415 154.038 55.5452 154.874 55.3886 155.125 55.2366 155.34 55.0488 155.559 54.1455 156.614 52.9962 157.329 51.6591 157.826 50.6976 158.197 49.7004 158.416 48.6764 158.541 48.1174 158.604 47.5271 158.698 46.9681 158.729 46.6864 158.729 46.4091 158.792 46.1274 158.823 46.0335 158.854 45.9083 158.886 45.7875 158.948 45.5371 159.074 45.3538 159.257 45.2285 159.539 45.1346 159.758 45.1033 159.972 45.072 160.191L45.072 161.09C45.0407 161.989 45.072 162.893 45.0407 163.791L45.0407 164.476C45.0094 164.632 44.9781 164.815 44.9468 164.972 44.8529 165.312 44.6383 165.531 44.3252 165.687 44.2 165.719 44.0748 165.781 43.9541 165.781 43.7662 165.813 43.5516 165.875 43.3638 165.875L40.6583 165.875 40.6583 165.875Z" fill="url(#fill6)" transform="matrix(1.00146 0 0 1 -1.27227e-14 0.0497967)"/></g></svg>